<svg width="51" height="50" viewBox="0 0 51 50" fill="none" xmlns="http://www.w3.org/2000/svg">
<rect width="51" height="50" rx="8" fill="#EBEBEB"/>
<path d="M16.5 16H18.5L18.9 18M20.5 26H30.5L34.5 18H18.9M20.5 26L18.9 18M20.5 26L18.2071 28.2929C17.5771 28.9229 18.0233 30 18.9142 30H30.5M30.5 30C29.3954 30 28.5 30.8954 28.5 32C28.5 33.1046 29.3954 34 30.5 34C31.6046 34 32.5 33.1046 32.5 32C32.5 30.8954 31.6046 30 30.5 30ZM22.5 32C22.5 33.1046 21.6046 34 20.5 34C19.3954 34 18.5 33.1046 18.5 32C18.5 30.8954 19.3954 30 20.5 30C21.6046 30 22.5 30.8954 22.5 32Z" stroke="#CE1126" stroke-width="1.5" stroke-linecap="round" stroke-linejoin="round"/>
</svg>
