<svg width="16" height="16" viewBox="0 0 16 16" fill="none" xmlns="http://www.w3.org/2000/svg">
<path d="M14.667 6.44676C14.6249 6.32482 14.5483 6.21772 14.4465 6.13843C14.3448 6.05915 14.2222 6.01109 14.0936 6.0001L10.3003 5.44676L8.60031 2.0001C8.54572 1.88738 8.46049 1.79232 8.35437 1.72581C8.24825 1.6593 8.12555 1.62402 8.00031 1.62402C7.87507 1.62402 7.75237 1.6593 7.64625 1.72581C7.54014 1.79232 7.4549 1.88738 7.40031 2.0001L5.70031 5.4401L1.90698 6.0001C1.78359 6.01763 1.66759 6.06941 1.57214 6.14954C1.47669 6.22967 1.40562 6.33495 1.36698 6.45343C1.33161 6.56921 1.32843 6.69244 1.3578 6.80989C1.38716 6.92734 1.44795 7.03458 1.53364 7.1201L4.28698 9.78676L3.62031 13.5734C3.59651 13.6984 3.60897 13.8276 3.65622 13.9457C3.70348 14.0639 3.78355 14.166 3.88698 14.2401C3.98779 14.3122 4.10669 14.3547 4.23034 14.363C4.35399 14.3712 4.47749 14.3448 4.58698 14.2868L8.00031 12.5068L11.4003 14.2934C11.4939 14.3462 11.5996 14.3738 11.707 14.3734C11.8482 14.3739 11.9859 14.3296 12.1003 14.2468C12.2037 14.1727 12.2838 14.0705 12.3311 13.9524C12.3783 13.8343 12.3908 13.7051 12.367 13.5801L11.7003 9.79343L14.4536 7.12676C14.5499 7.04522 14.621 6.93803 14.6588 6.81766C14.6966 6.69729 14.6994 6.56868 14.667 6.44676ZM10.567 9.11343C10.4888 9.18905 10.4303 9.28266 10.3966 9.38608C10.3629 9.4895 10.355 9.5996 10.3736 9.70676L10.8536 12.5001L8.34698 11.1668C8.25052 11.1154 8.14292 11.0885 8.03364 11.0885C7.92437 11.0885 7.81677 11.1154 7.72031 11.1668L5.21364 12.5001L5.69364 9.70676C5.71227 9.5996 5.70439 9.4895 5.67069 9.38608C5.63699 9.28266 5.5785 9.18905 5.50031 9.11343L3.50031 7.11343L6.30698 6.70676C6.41498 6.69174 6.51764 6.65046 6.60598 6.58653C6.69431 6.52261 6.76562 6.43799 6.81364 6.3401L8.00031 3.8001L9.25364 6.34676C9.30167 6.44466 9.37298 6.52927 9.46131 6.5932C9.54965 6.65712 9.65231 6.69841 9.76031 6.71343L12.567 7.1201L10.567 9.11343Z" fill="#222222"/>
</svg>
