<svg width="48" height="48" viewBox="0 0 48 48" fill="none" xmlns="http://www.w3.org/2000/svg"> <path d="M0 8.31169C0 3.72127 3.72127 0 8.31169 0H17.1429C26.6106 0 34.2857 7.67512 34.2857 17.1429C34.2857 26.6106 26.6106 34.2857 17.1429 34.2857H8.31168C3.72127 34.2857 0 30.5644 0 25.974V8.31169Z" fill="#FFAF38"/> <path d="M0 25.3506C0 18.924 5.20978 13.7142 11.6364 13.7142H30.8571C40.3249 13.7142 48 21.3894 48 30.8571C48 40.3248 40.3249 47.9999 30.8571 47.9999H11.6364C5.20978 47.9999 0 42.7902 0 36.3636V25.3506Z" fill="#CE1126"/> <path d="M30.8574 13.7142C31.9298 13.7143 32.9792 13.8129 33.9971 14.0013C34.1857 15.0198 34.2861 16.0698 34.2861 17.1429C34.2861 26.6106 26.6103 34.2855 17.1426 34.2855H8.31152C3.72119 34.2854 1.32245e-05 30.5644 0 25.974V25.3138C0.0198184 18.9042 5.22239 13.7142 11.6367 13.7142H30.8574Z" fill="#FF6B00"/> </svg>