<svg width="203" height="56" viewBox="0 0 203 56" fill="none" xmlns="http://www.w3.org/2000/svg">
<path d="M195.575 43.6587V39.1787L195.149 38.1973V30.176C195.149 28.7538 194.708 27.6445 193.826 26.848C192.973 26.0516 191.65 25.6533 189.858 25.6533C188.635 25.6533 187.426 25.8524 186.231 26.2507C185.065 26.6205 184.07 27.1325 183.245 27.7867L180.855 23.136C182.107 22.2542 183.614 21.5716 185.378 21.088C187.142 20.6044 188.934 20.3627 190.754 20.3627C194.253 20.3627 196.969 21.1876 198.903 22.8373C200.838 24.4871 201.805 27.0613 201.805 30.56V43.6587H195.575ZM188.578 44C186.786 44 185.25 43.7013 183.97 43.104C182.69 42.4782 181.709 41.6391 181.026 40.5867C180.343 39.5342 180.002 38.3538 180.002 37.0453C180.002 35.68 180.329 34.4853 180.983 33.4613C181.666 32.4373 182.733 31.6409 184.183 31.072C185.634 30.4747 187.526 30.176 189.858 30.176H195.959V34.0587H190.583C189.019 34.0587 187.938 34.3147 187.341 34.8267C186.772 35.3387 186.487 35.9787 186.487 36.7467C186.487 37.6 186.814 38.2827 187.469 38.7947C188.151 39.2782 189.076 39.52 190.242 39.52C191.351 39.52 192.347 39.264 193.229 38.752C194.11 38.2116 194.75 37.4293 195.149 36.4053L196.173 39.4773C195.689 40.9565 194.807 42.08 193.527 42.848C192.247 43.616 190.598 44 188.578 44Z" fill="#222222"/>
<path d="M160.956 38.9653L161.127 30.8587L171.836 20.704H179.772L169.489 31.1573L166.033 33.9733L160.956 38.9653ZM155.452 43.6587V12H162.108V43.6587H155.452ZM172.561 43.6587L164.796 34.016L168.977 28.8533L180.625 43.6587H172.561Z" fill="#222222"/>
<path d="M140.123 44C137.677 44 135.501 43.488 133.595 42.464C131.718 41.44 130.225 40.0462 129.115 38.2827C128.035 36.4907 127.494 34.4569 127.494 32.1813C127.494 29.8773 128.035 27.8436 129.115 26.08C130.225 24.288 131.718 22.8942 133.595 21.8987C135.501 20.8747 137.677 20.3627 140.123 20.3627C142.541 20.3627 144.703 20.8747 146.609 21.8987C148.515 22.8942 150.008 24.2738 151.089 26.0373C152.17 27.8009 152.71 29.8489 152.71 32.1813C152.71 34.4569 152.17 36.4907 151.089 38.2827C150.008 40.0462 148.515 41.44 146.609 42.464C144.703 43.488 142.541 44 140.123 44ZM140.123 38.5387C141.233 38.5387 142.228 38.2827 143.11 37.7707C143.992 37.2587 144.689 36.5333 145.201 35.5947C145.713 34.6276 145.969 33.4898 145.969 32.1813C145.969 30.8444 145.713 29.7067 145.201 28.768C144.689 27.8293 143.992 27.104 143.11 26.592C142.228 26.08 141.233 25.824 140.123 25.824C139.014 25.824 138.019 26.08 137.137 26.592C136.255 27.104 135.544 27.8293 135.003 28.768C134.491 29.7067 134.235 30.8444 134.235 32.1813C134.235 33.4898 134.491 34.6276 135.003 35.5947C135.544 36.5333 136.255 37.2587 137.137 37.7707C138.019 38.2827 139.014 38.5387 140.123 38.5387Z" fill="#222222"/>
<path d="M113.872 44C111.425 44 109.249 43.488 107.344 42.464C105.466 41.44 103.973 40.0462 102.864 38.2827C101.783 36.4907 101.242 34.4569 101.242 32.1813C101.242 29.8773 101.783 27.8436 102.864 26.08C103.973 24.288 105.466 22.8942 107.344 21.8987C109.249 20.8747 111.425 20.3627 113.872 20.3627C116.289 20.3627 118.451 20.8747 120.357 21.8987C122.263 22.8942 123.756 24.2738 124.837 26.0373C125.918 27.8009 126.458 29.8489 126.458 32.1813C126.458 34.4569 125.918 36.4907 124.837 38.2827C123.756 40.0462 122.263 41.44 120.357 42.464C118.451 43.488 116.289 44 113.872 44ZM113.872 38.5387C114.981 38.5387 115.976 38.2827 116.858 37.7707C117.74 37.2587 118.437 36.5333 118.949 35.5947C119.461 34.6276 119.717 33.4898 119.717 32.1813C119.717 30.8444 119.461 29.7067 118.949 28.768C118.437 27.8293 117.74 27.104 116.858 26.592C115.976 26.08 114.981 25.824 113.872 25.824C112.762 25.824 111.767 26.08 110.885 26.592C110.003 27.104 109.292 27.8293 108.752 28.768C108.24 29.7067 107.984 30.8444 107.984 32.1813C107.984 33.4898 108.24 34.6276 108.752 35.5947C109.292 36.5333 110.003 37.2587 110.885 37.7707C111.767 38.2827 112.762 38.5387 113.872 38.5387Z" fill="#222222"/>
<path d="M72.5 43.6587V13.792H87.092C90.8467 13.792 93.6627 14.5031 95.54 15.9253C97.4458 17.3475 98.3987 19.2249 98.3987 21.5573C98.3987 23.1218 98.0147 24.4871 97.2467 25.6533C96.4787 26.7911 95.4262 27.6729 94.0893 28.2987C92.7525 28.9244 91.2165 29.2373 89.4813 29.2373L90.292 27.488C92.1693 27.488 93.8333 27.8009 95.284 28.4267C96.7347 29.024 97.8582 29.92 98.6547 31.1147C99.4796 32.3093 99.892 33.7742 99.892 35.5093C99.892 38.0693 98.8822 40.0747 96.8627 41.5253C94.8431 42.9476 91.8707 43.6587 87.9453 43.6587H72.5ZM79.3693 38.4533H87.4333C89.2253 38.4533 90.5765 38.1689 91.4867 37.6C92.4253 37.0027 92.8947 36.064 92.8947 34.784C92.8947 33.5324 92.4253 32.608 91.4867 32.0107C90.5765 31.3849 89.2253 31.072 87.4333 31.072H78.8573V26.0373H86.2387C87.9169 26.0373 89.1969 25.7529 90.0787 25.184C90.9889 24.5867 91.444 23.6907 91.444 22.496C91.444 21.3298 90.9889 20.4622 90.0787 19.8933C89.1969 19.296 87.9169 18.9973 86.2387 18.9973H79.3693V38.4533Z" fill="#222222"/>
<path d="M0.5 9.69697C0.5 4.34148 4.84148 0 10.197 0H20.5C31.5457 0 40.5 8.95431 40.5 20C40.5 31.0457 31.5457 40 20.5 40H10.197C4.84148 40 0.5 35.6585 0.5 30.303V9.69697Z" fill="#FFAF38"/>
<path d="M0.5 29.5758C0.5 22.0781 6.57807 16 14.0758 16H36.5C47.5457 16 56.5 24.9543 56.5 36C56.5 47.0457 47.5457 56 36.5 56H14.0758C6.57808 56 0.5 49.9219 0.5 42.4242V29.5758Z" fill="#CE1126"/>
<path d="M36.5 16C37.7513 16 38.9755 16.1161 40.1631 16.3359C40.3831 17.5239 40.5 18.7483 40.5 20C40.5 31.0457 31.5457 40 20.5 40H10.1973C4.84178 40 0.5 35.6582 0.5 30.3027V29.5762C0.5 22.0785 6.57849 16 14.0762 16H36.5Z" fill="#FF6B00"/>
</svg>
