<svg width="20" height="20" viewBox="0 0 20 20" fill="none" xmlns="http://www.w3.org/2000/svg">
<rect width="20" height="20" rx="4" fill="#CE1126"/>
<path d="M13.9997 10.6666H10.6663V13.9999C10.6663 14.3666 10.3663 14.6666 9.99967 14.6666C9.63301 14.6666 9.33301 14.3666 9.33301 13.9999V10.6666H5.99967C5.63301 10.6666 5.33301 10.3666 5.33301 9.99992C5.33301 9.63325 5.63301 9.33325 5.99967 9.33325H9.33301V5.99992C9.33301 5.63325 9.63301 5.33325 9.99967 5.33325C10.3663 5.33325 10.6663 5.63325 10.6663 5.99992V9.33325H13.9997C14.3663 9.33325 14.6663 9.63325 14.6663 9.99992C14.6663 10.3666 14.3663 10.6666 13.9997 10.6666Z" fill="#F9F9F9"/>
</svg>
