<svg width="24" height="23" viewBox="0 0 24 23" fill="none" xmlns="http://www.w3.org/2000/svg">
<path opacity="0.75" d="M21.7956 2.21779C20.5222 0.944028 18.834 0.169594 17.0379 0.0353259C15.2417 -0.098942 13.4571 0.415875 12.0085 1.48615C10.4824 0.351077 8.58295 -0.16362 6.69259 0.0457083C4.80224 0.255036 3.06141 1.17284 1.82066 2.6143C0.579915 4.05575 -0.0685862 5.91379 0.00575165 7.81424C0.0800895 9.7147 0.871744 11.5164 2.2213 12.8565L11.1569 21.7921C11.2684 21.9045 11.401 21.9938 11.5472 22.0547C11.6934 22.1156 11.8501 22.1469 12.0085 22.1469C12.1668 22.1469 12.3236 22.1156 12.4697 22.0547C12.6159 21.9938 12.7485 21.9045 12.86 21.7921L21.7956 12.8565C22.4945 12.1582 23.0488 11.3289 23.4271 10.4162C23.8053 9.50346 24 8.52515 24 7.53716C24 6.54917 23.8053 5.57087 23.4271 4.65815C23.0488 3.74542 22.4945 2.91618 21.7956 2.21779Z" fill="#222222"/>
<path d="M21.7956 2.21779C20.5222 0.944028 18.834 0.169594 17.0379 0.0353259C15.2417 -0.098942 13.4571 0.415875 12.0085 1.48615C10.4824 0.351077 8.58295 -0.16362 6.69259 0.0457083C4.80224 0.255036 3.06141 1.17284 1.82066 2.6143C0.579915 4.05575 -0.0685862 5.91379 0.00575165 7.81424C0.0800895 9.7147 0.871744 11.5164 2.2213 12.8565L11.1569 21.7921C11.2684 21.9045 11.401 21.9938 11.5472 22.0547C11.6934 22.1156 11.8501 22.1469 12.0085 22.1469C12.1668 22.1469 12.3236 22.1156 12.4697 22.0547C12.6159 21.9938 12.7485 21.9045 12.86 21.7921L21.7956 12.8565C22.4945 12.1582 23.0488 11.3289 23.4271 10.4162C23.8053 9.50346 24 8.52515 24 7.53716C24 6.54917 23.8053 5.57087 23.4271 4.65815C23.0488 3.74542 22.4945 2.91618 21.7956 2.21779ZM20.1045 11.1654L12.0085 19.2494L3.91246 11.1654C3.19902 10.449 2.71302 9.53783 2.51543 8.54627C2.31783 7.55472 2.41744 6.52688 2.80175 5.59172C3.18607 4.65655 3.83798 3.85569 4.6757 3.28961C5.51342 2.72352 6.49966 2.41742 7.51068 2.4097C8.86135 2.413 10.1555 2.95223 11.1089 3.90896C11.2204 4.02137 11.3531 4.1106 11.4992 4.1715C11.6454 4.23239 11.8022 4.26374 11.9605 4.26374C12.1188 4.26374 12.2756 4.23239 12.4218 4.1715C12.5679 4.1106 12.7006 4.02137 12.8121 3.90896C13.7936 3.05843 15.0615 2.61257 16.3594 2.6616C17.6572 2.71063 18.8879 3.2509 19.8024 4.17305C20.717 5.09521 21.247 6.33037 21.2853 7.62855C21.3235 8.92673 20.8672 10.191 20.0085 11.1654H20.1045Z" fill="white"/>
</svg>
