<svg width="20" height="22" viewBox="0 0 20 22" fill="none" xmlns="http://www.w3.org/2000/svg">
<path d="M18.5052 14.7436C17.8934 14.482 17.3722 14.0458 17.0068 13.4897C16.6414 12.9336 16.4479 12.2821 16.4505 11.6166C16.4585 11.0227 16.6175 10.4405 16.9128 9.92499C17.208 9.40951 17.6297 8.97773 18.138 8.67036C18.2531 8.59928 18.3525 8.50562 18.4303 8.39504C18.508 8.28446 18.5626 8.15925 18.5906 8.02699C18.6186 7.89472 18.6196 7.75814 18.5933 7.62552C18.567 7.49289 18.5142 7.36697 18.4378 7.25536C17.9809 6.59082 17.3851 6.03337 16.6918 5.62148C15.9984 5.20958 15.2239 4.95306 14.4217 4.86963C15.1683 3.68476 15.5072 2.28832 15.3866 0.893046C15.363 0.639689 15.2423 0.405299 15.0496 0.239061C14.857 0.0728238 14.6075 -0.012338 14.3534 0.00144634C12.6363 0.154484 11.0446 0.96434 9.91002 2.26219C9.19079 3.09557 8.68327 4.09018 8.43053 5.1616C7.90834 4.98488 7.36164 4.89129 6.81041 4.88426C5.78989 4.91318 4.79417 5.20529 3.91977 5.73227C3.04537 6.25925 2.32196 7.00322 1.81969 7.89205C-0.0680125 11.1694 1.08678 16.0805 3.13169 19.0366C3.952 20.2211 5.18296 21.9995 7.03989 21.9995C7.07651 21.9995 7.11362 21.9995 7.15073 21.9975C7.7729 21.9622 8.38202 21.8045 8.94321 21.5336C9.39147 21.3064 9.88601 21.1854 10.3885 21.1801C10.8611 21.1858 11.3258 21.3015 11.7459 21.518C12.3598 21.8084 13.0288 21.9639 13.7079 21.974C15.6209 21.9379 16.7509 20.2875 17.576 19.0814C18.2271 18.1235 18.7366 17.0765 19.0887 15.973C19.1638 15.7323 19.1454 15.4721 19.0373 15.2443C18.9292 15.0165 18.7392 14.8377 18.5052 14.7436ZM11.4242 3.56787C11.9494 2.98036 12.6075 2.527 13.3436 2.24561C13.1826 3.03784 12.8262 3.77733 12.307 4.39697C11.9545 4.81984 11.5257 5.17267 11.0428 5.43705L11.0399 5.43805C11.0116 5.44977 10.9833 5.46051 10.9549 5.47223C10.7684 5.54547 10.5379 5.63629 10.3602 5.69488C10.5318 4.9082 10.8976 4.17699 11.4242 3.56787ZM15.9256 17.9526C15.1219 19.1265 14.4896 19.9595 13.6712 19.9741C13.2757 19.9729 12.8867 19.8725 12.5399 19.6821C11.8695 19.3555 11.1342 19.1839 10.3885 19.1801C9.61691 19.184 8.85577 19.3591 8.16002 19.6928C7.82175 19.8655 7.45271 19.9697 7.07408 19.9994H7.0443C6.2313 19.9994 5.3568 18.7368 4.77623 17.8979C3.32359 15.7983 1.98375 11.6147 3.55309 8.89008C3.88217 8.30048 4.35808 7.80597 4.93462 7.45453C5.51116 7.10309 6.16876 6.90665 6.84361 6.88428L6.8773 6.88328C7.44658 6.93166 8.00249 7.08217 8.51842 7.32762C8.64977 7.37937 8.77916 7.43113 8.90758 7.47898C8.94029 7.49266 8.97398 7.50535 9.00816 7.51609C9.36402 7.65922 9.74203 7.73951 10.1253 7.7534C10.6681 7.71026 11.1983 7.56759 11.6893 7.3325C12.3816 6.99652 13.1426 6.82634 13.912 6.83543C14.735 6.86763 15.5251 7.16728 16.1625 7.68895C15.6178 8.19081 15.1841 8.80108 14.8893 9.48054C14.5944 10.16 14.445 10.8936 14.4506 11.6343V11.6353C14.4449 12.5319 14.6668 13.4153 15.0955 14.2028C15.5242 14.9903 16.1457 15.6562 16.9017 16.1382C16.6385 16.7744 16.3114 17.3823 15.9256 17.9526Z" fill="#222222"/>
</svg>
