<svg width="22" height="22" viewBox="0 0 22 22" fill="none" xmlns="http://www.w3.org/2000/svg">
<path d="M21.6015 9.00395C21.5599 8.77333 21.4385 8.56467 21.2587 8.41438C21.0789 8.2641 20.852 8.18174 20.6177 8.18168H11.1992C11.0679 8.18165 10.9379 8.20749 10.8165 8.25774C10.6952 8.30798 10.5849 8.38164 10.4921 8.4745C10.3992 8.56737 10.3255 8.67762 10.2753 8.79896C10.225 8.9203 10.1992 9.05035 10.1992 9.18168V13.0498C10.1992 13.1812 10.225 13.3112 10.2753 13.4326C10.3255 13.5539 10.3992 13.6642 10.4921 13.757C10.5849 13.8499 10.6952 13.9236 10.8165 13.9738C10.9379 14.024 11.0679 14.0499 11.1992 14.0498H15.1616C14.8793 14.5264 14.4923 14.9325 14.0298 15.2373C13.1847 15.7732 12.1996 16.0464 11.1992 16.0225C10.1617 16.0106 9.15432 15.6721 8.32022 15.0549C7.48613 14.4378 6.86776 13.5734 6.553 12.5847L6.55271 12.583C6.20244 11.5564 6.20244 10.4427 6.55271 9.41605L6.55295 9.41439C6.86793 8.4259 7.48639 7.56179 8.32047 6.94483C9.15455 6.32787 10.1618 5.98943 11.1992 5.97758C11.7757 5.96435 12.349 6.06512 12.8864 6.2741C13.4237 6.48309 13.9145 6.79616 14.3305 7.19535C14.5195 7.37591 14.7716 7.47537 15.0329 7.47245C15.2943 7.46953 15.5441 7.36447 15.729 7.17974L18.5971 4.31156C18.6922 4.21667 18.7671 4.10359 18.8174 3.97908C18.8678 3.85458 18.8925 3.72121 18.8901 3.58693C18.8877 3.45266 18.8583 3.32024 18.8036 3.19759C18.7489 3.07494 18.6701 2.96458 18.5718 2.87309C16.5759 1.0018 13.935 -0.0273445 11.1992 4.4708e-05C9.15917 -0.0059912 7.158 0.558057 5.42137 1.62858C3.68474 2.69911 2.28174 4.23353 1.37058 6.05883L1.36911 6.0606C0.596637 7.59235 0.195857 9.28453 0.19924 11C0.201673 12.7149 0.602158 14.4057 1.36916 15.9395L1.37063 15.9413C2.28179 17.7665 3.68478 19.301 5.4214 20.3715C7.15802 21.442 9.15918 22.0061 11.1992 22C13.8846 22.068 16.4943 21.1067 18.4939 19.313L18.4947 19.3126L18.4954 19.3117L18.4956 19.3116L18.4957 19.3115C19.5795 18.2688 20.4333 17.011 21.0023 15.6188C21.5712 14.2267 21.8427 12.7309 21.7993 11.2276C21.7998 10.482 21.7336 9.7378 21.6015 9.00395ZM11.1992 2.00004C13.0703 1.98183 14.8972 2.56859 16.4077 3.67289L14.9541 5.12604C13.8518 4.3631 12.5397 3.96175 11.1992 3.97758C9.97546 3.98388 8.77547 4.31617 7.72277 4.94027C6.67007 5.56437 5.8027 6.45771 5.20993 7.52837L4.14072 6.69963L3.55572 6.24595C4.36049 4.9438 5.48571 3.86975 6.82388 3.1264C8.16205 2.38306 9.66848 1.99526 11.1992 2.00004ZM2.67868 13.9034C2.03936 12.0206 2.03936 9.97948 2.67868 8.09672L4.46091 9.47857C4.23304 10.4798 4.23304 11.5194 4.46091 12.5206L2.67868 13.9034ZM11.1992 20C9.66845 20.0048 8.16201 19.617 6.82382 18.8736C5.48564 18.1302 4.36041 17.0561 3.55564 15.754L3.93405 15.4604L5.20993 14.4707C5.80244 15.5417 6.66972 16.4353 7.72246 17.0596C8.7752 17.6839 9.97533 18.0163 11.1992 18.0225C12.3449 18.036 13.4775 17.7787 14.505 17.2717L16.1966 18.585C14.7088 19.5437 12.9688 20.0364 11.1992 20ZM17.7251 17.2393L17.5421 17.0973L16.1648 16.028C16.887 15.2478 17.3724 14.2782 17.5644 13.2325C17.5913 13.0882 17.586 12.9397 17.549 12.7976C17.512 12.6555 17.4441 12.5233 17.3502 12.4105C17.2564 12.2976 17.1388 12.2067 17.0058 12.1444C16.8729 12.0821 16.7279 12.0498 16.581 12.0499H12.1992V10.1817H19.7481C19.7823 10.5274 19.7993 10.877 19.7993 11.2276C19.8578 13.4164 19.1209 15.5522 17.7251 17.2393H17.7251Z" fill="#222222"/>
</svg>
