<svg width="32" height="32" viewBox="0 0 32 32" fill="none" xmlns="http://www.w3.org/2000/svg">
<rect width="32" height="32" rx="16" fill="white"/>
<path d="M15.2908 15.9999L18.8308 12.4599C19.017 12.2726 19.1216 12.0191 19.1216 11.7549C19.1216 11.4908 19.017 11.2373 18.8308 11.0499C18.7378 10.9562 18.6272 10.8818 18.5054 10.8311C18.3835 10.7803 18.2528 10.7542 18.1208 10.7542C17.9888 10.7542 17.8581 10.7803 17.7362 10.8311C17.6144 10.8818 17.5038 10.9562 17.4108 11.0499L13.1708 15.2899C13.0771 15.3829 13.0027 15.4935 12.9519 15.6154C12.9011 15.7372 12.875 15.8679 12.875 15.9999C12.875 16.132 12.9011 16.2627 12.9519 16.3845C13.0027 16.5064 13.0771 16.617 13.1708 16.7099L17.4108 20.9999C17.5042 21.0926 17.6151 21.166 17.7369 21.2157C17.8587 21.2655 17.9892 21.2907 18.1208 21.2899C18.2524 21.2907 18.3829 21.2655 18.5047 21.2157C18.6265 21.166 18.7374 21.0926 18.8308 20.9999C19.017 20.8126 19.1216 20.5591 19.1216 20.2949C19.1216 20.0308 19.017 19.7773 18.8308 19.5899L15.2908 15.9999Z" fill="#222222"/>
</svg>
