<svg width="16" height="16" viewBox="0 0 16 16" fill="none" xmlns="http://www.w3.org/2000/svg">
<path d="M7.99967 9.33325C8.13153 9.33325 8.26042 9.29415 8.37006 9.2209C8.47969 9.14764 8.56514 9.04353 8.61559 8.92171C8.66605 8.79989 8.67926 8.66585 8.65353 8.53653C8.62781 8.4072 8.56431 8.28842 8.47108 8.19518C8.37784 8.10195 8.25906 8.03845 8.12973 8.01273C8.00041 7.98701 7.86637 8.00021 7.74455 8.05067C7.62273 8.10112 7.51862 8.18657 7.44536 8.29621C7.37211 8.40584 7.33301 8.53473 7.33301 8.66659C7.33301 8.8434 7.40325 9.01297 7.52827 9.13799C7.65329 9.26301 7.82286 9.33325 7.99967 9.33325ZM11.333 9.33325C11.4649 9.33325 11.5938 9.29415 11.7034 9.2209C11.813 9.14764 11.8985 9.04353 11.9489 8.92171C11.9994 8.79989 12.0126 8.66585 11.9869 8.53653C11.9611 8.4072 11.8976 8.28842 11.8044 8.19518C11.7112 8.10195 11.5924 8.03845 11.4631 8.01273C11.3337 7.98701 11.1997 8.00021 11.0779 8.05067C10.9561 8.10112 10.8519 8.18657 10.7787 8.29621C10.7054 8.40584 10.6663 8.53473 10.6663 8.66659C10.6663 8.8434 10.7366 9.01297 10.8616 9.13799C10.9866 9.26301 11.1562 9.33325 11.333 9.33325ZM7.99967 11.9999C8.13153 11.9999 8.26042 11.9608 8.37006 11.8876C8.47969 11.8143 8.56514 11.7102 8.61559 11.5884C8.66605 11.4666 8.67926 11.3325 8.65353 11.2032C8.62781 11.0739 8.56431 10.9551 8.47108 10.8618C8.37784 10.7686 8.25906 10.7051 8.12973 10.6794C8.00041 10.6537 7.86637 10.6669 7.74455 10.7173C7.62273 10.7678 7.51862 10.8532 7.44536 10.9629C7.37211 11.0725 7.33301 11.2014 7.33301 11.3333C7.33301 11.5101 7.40325 11.6796 7.52827 11.8047C7.65329 11.9297 7.82286 11.9999 7.99967 11.9999ZM11.333 11.9999C11.4649 11.9999 11.5938 11.9608 11.7034 11.8876C11.813 11.8143 11.8985 11.7102 11.9489 11.5884C11.9994 11.4666 12.0126 11.3325 11.9869 11.2032C11.9611 11.0739 11.8976 10.9551 11.8044 10.8618C11.7112 10.7686 11.5924 10.7051 11.4631 10.6794C11.3337 10.6537 11.1997 10.6669 11.0779 10.7173C10.9561 10.7678 10.8519 10.8532 10.7787 10.9629C10.7054 11.0725 10.6663 11.2014 10.6663 11.3333C10.6663 11.5101 10.7366 11.6796 10.8616 11.8047C10.9866 11.9297 11.1562 11.9999 11.333 11.9999ZM4.66634 9.33325C4.7982 9.33325 4.92709 9.29415 5.03672 9.2209C5.14635 9.14764 5.2318 9.04353 5.28226 8.92171C5.33272 8.79989 5.34592 8.66585 5.3202 8.53653C5.29447 8.4072 5.23098 8.28842 5.13775 8.19518C5.04451 8.10195 4.92572 8.03845 4.7964 8.01273C4.66708 7.98701 4.53304 8.00021 4.41122 8.05067C4.2894 8.10112 4.18528 8.18657 4.11203 8.29621C4.03877 8.40584 3.99967 8.53473 3.99967 8.66659C3.99967 8.8434 4.06991 9.01297 4.19494 9.13799C4.31996 9.26301 4.48953 9.33325 4.66634 9.33325ZM12.6663 2.66659H11.9997V1.99992C11.9997 1.82311 11.9294 1.65354 11.8044 1.52851C11.6794 1.40349 11.5098 1.33325 11.333 1.33325C11.1562 1.33325 10.9866 1.40349 10.8616 1.52851C10.7366 1.65354 10.6663 1.82311 10.6663 1.99992V2.66659H5.33301V1.99992C5.33301 1.82311 5.26277 1.65354 5.13775 1.52851C5.01272 1.40349 4.84315 1.33325 4.66634 1.33325C4.48953 1.33325 4.31996 1.40349 4.19494 1.52851C4.06991 1.65354 3.99967 1.82311 3.99967 1.99992V2.66659H3.33301C2.80257 2.66659 2.29387 2.8773 1.91879 3.25237C1.54372 3.62744 1.33301 4.13615 1.33301 4.66659V12.6666C1.33301 13.197 1.54372 13.7057 1.91879 14.0808C2.29387 14.4559 2.80257 14.6666 3.33301 14.6666H12.6663C13.1968 14.6666 13.7055 14.4559 14.0806 14.0808C14.4556 13.7057 14.6663 13.197 14.6663 12.6666V4.66659C14.6663 4.13615 14.4556 3.62744 14.0806 3.25237C13.7055 2.8773 13.1968 2.66659 12.6663 2.66659ZM13.333 12.6666C13.333 12.8434 13.2628 13.013 13.1377 13.138C13.0127 13.263 12.8432 13.3333 12.6663 13.3333H3.33301C3.1562 13.3333 2.98663 13.263 2.8616 13.138C2.73658 13.013 2.66634 12.8434 2.66634 12.6666V6.66659H13.333V12.6666ZM13.333 5.33325H2.66634V4.66659C2.66634 4.48977 2.73658 4.32021 2.8616 4.19518C2.98663 4.07016 3.1562 3.99992 3.33301 3.99992H12.6663C12.8432 3.99992 13.0127 4.07016 13.1377 4.19518C13.2628 4.32021 13.333 4.48977 13.333 4.66659V5.33325ZM4.66634 11.9999C4.7982 11.9999 4.92709 11.9608 5.03672 11.8876C5.14635 11.8143 5.2318 11.7102 5.28226 11.5884C5.33272 11.4666 5.34592 11.3325 5.3202 11.2032C5.29447 11.0739 5.23098 10.9551 5.13775 10.8618C5.04451 10.7686 4.92572 10.7051 4.7964 10.6794C4.66708 10.6537 4.53304 10.6669 4.41122 10.7173C4.2894 10.7678 4.18528 10.8532 4.11203 10.9629C4.03877 11.0725 3.99967 11.2014 3.99967 11.3333C3.99967 11.5101 4.06991 11.6796 4.19494 11.8047C4.31996 11.9297 4.48953 11.9999 4.66634 11.9999Z" fill="#222222"/>
</svg>
