<svg width="16" height="16" viewBox="0 0 16 16" fill="none" xmlns="http://www.w3.org/2000/svg">
<path d="M13.6409 6.42004C13.5473 5.44599 13.2031 4.51276 12.6417 3.71126C12.0803 2.90975 11.321 2.26726 10.4376 1.84637C9.55416 1.42548 8.57682 1.24052 7.60071 1.30951C6.6246 1.3785 5.68299 1.69908 4.86756 2.24004C4.16703 2.70847 3.57893 3.32624 3.14553 4.04897C2.71212 4.7717 2.44416 5.58145 2.3609 6.42004C2.27922 7.25315 2.38401 8.09399 2.66768 8.88156C2.95134 9.66913 3.40676 10.3837 4.0009 10.9734L7.53423 14.5134C7.59621 14.5759 7.66994 14.6255 7.75118 14.6593C7.83242 14.6932 7.91956 14.7106 8.00756 14.7106C8.09557 14.7106 8.18271 14.6932 8.26395 14.6593C8.34519 14.6255 8.41892 14.5759 8.4809 14.5134L12.0009 10.9734C12.595 10.3837 13.0505 9.66913 13.3341 8.88156C13.6178 8.09399 13.7226 7.25315 13.6409 6.42004V6.42004ZM11.0676 10.0334L8.0009 13.1L4.93423 10.0334C4.48229 9.58141 4.1361 9.03493 3.92054 8.43322C3.70499 7.8315 3.62542 7.18951 3.68756 6.55338C3.75011 5.90745 3.95541 5.28348 4.28861 4.7266C4.62182 4.16973 5.0746 3.69385 5.61423 3.33338C6.32153 2.86353 7.15177 2.61291 8.0009 2.61291C8.85003 2.61291 9.68027 2.86353 10.3876 3.33338C10.9256 3.69245 11.3773 4.16623 11.7105 4.72067C12.0436 5.27511 12.2498 5.89644 12.3142 6.54004C12.3784 7.17833 12.2998 7.82289 12.0842 8.42708C11.8686 9.03126 11.5213 9.57993 11.0676 10.0334V10.0334ZM8.0009 4.00004C7.40755 4.00004 6.82753 4.17599 6.33419 4.50563C5.84084 4.83528 5.45632 5.30381 5.22926 5.85199C5.0022 6.40017 4.94279 7.00337 5.05854 7.58531C5.1743 8.16726 5.46002 8.70181 5.87958 9.12136C6.29913 9.54092 6.83368 9.82664 7.41563 9.9424C7.99757 10.0582 8.60077 9.99875 9.14895 9.77168C9.69713 9.54462 10.1657 9.1601 10.4953 8.66675C10.8249 8.17341 11.0009 7.59339 11.0009 7.00004C10.9991 6.20494 10.6825 5.4429 10.1203 4.88067C9.55804 4.31844 8.79601 4.0018 8.0009 4.00004V4.00004ZM8.0009 8.66671C7.67126 8.66671 7.34903 8.56896 7.07495 8.38583C6.80086 8.20269 6.58724 7.94239 6.4611 7.63785C6.33495 7.33331 6.30195 6.99819 6.36625 6.67489C6.43056 6.35159 6.5893 6.05462 6.82239 5.82153C7.05547 5.58844 7.35244 5.42971 7.67575 5.3654C7.99905 5.30109 8.33416 5.3341 8.6387 5.46024C8.94325 5.58639 9.20354 5.80001 9.38668 6.07409C9.56982 6.34817 9.66756 6.67041 9.66756 7.00004C9.66756 7.44207 9.49197 7.86599 9.17941 8.17855C8.86685 8.49112 8.44292 8.66671 8.0009 8.66671V8.66671Z" fill="#222222"/>
</svg>
