<svg width="16" height="17" viewBox="0 0 16 17" fill="none" xmlns="http://www.w3.org/2000/svg">
<path d="M14.6663 7.60862C14.733 7.27528 14.4663 6.87528 14.133 6.87528L10.333 6.34195L8.59967 2.87528C8.53301 2.74195 8.46634 2.67528 8.33301 2.60862C7.99967 2.40862 7.59967 2.54195 7.39967 2.87528L5.73301 6.34195L1.93301 6.87528C1.73301 6.87528 1.59967 6.94195 1.53301 7.07528C1.26634 7.34195 1.26634 7.74195 1.53301 8.00862L4.26634 10.6753L3.59967 14.4753C3.59967 14.6086 3.59967 14.742 3.66634 14.8753C3.86634 15.2086 4.26634 15.342 4.59967 15.142L7.99967 13.342L11.3997 15.142C11.4663 15.2086 11.5997 15.2086 11.733 15.2086C11.7997 15.2086 11.7997 15.2086 11.8663 15.2086C12.1997 15.142 12.4663 14.8086 12.3997 14.4086L11.733 10.6086L14.4663 7.94195C14.5997 7.87528 14.6663 7.74195 14.6663 7.60862Z" fill="#222222"/>
</svg>
