<svg width="32" height="25" viewBox="0 0 32 25" fill="none" xmlns="http://www.w3.org/2000/svg">
<path d="M31.5097 1.19684C31.1049 1.00512 30.6299 1.20846 30.4572 1.6442C30.4518 1.65001 30.4518 1.65582 30.4464 1.66744L29.4425 4.27609C29.3507 4.27028 29.2644 4.27028 29.1726 4.27609C27.9043 4.27609 26.8032 5.37997 26.1231 7.12875L24.7468 10.7076C24.5795 11.1434 24.4554 11.5966 24.3744 12.0555C23.7591 11.7767 23.1006 11.6314 22.4368 11.6314H16.4241C15.798 11.6837 15.1827 11.7999 14.5782 11.98C14.4217 10.7716 13.3098 9.90588 13.2181 9.83035C13.9036 9.26098 14.5566 8.65094 15.1719 8.00023C16.7372 6.32117 16.9477 4.27028 15.7386 2.82942C15.2745 2.19614 14.535 1.87079 13.7902 1.96956C13.5365 1.18522 12.9752 0.557749 12.2574 0.244015C11.9281 0.0929574 11.5665 0.0058099 11.2103 0C8.40366 0 7.60485 4.74088 7.20545 6.11782C6.88701 6.07134 3.20062 5.60655 2.46119 8.62189H0.798807C0.356225 8.62189 0 9.00534 0 9.48176C0 9.95817 0.356225 10.3416 0.798807 10.3416H2.58533C3.06029 11.6663 4.80363 13.357 8.14999 12.1078C8.17697 12.9677 9.21326 15.0825 10.5518 15.6577C9.20787 16.3781 8.04204 19.5038 7.94489 19.7595C7.08671 21.9149 7.58327 24.0239 9.25104 24.7618C9.58568 24.9129 9.94191 24.9942 10.3035 24.9942C11.6151 25 12.8133 23.9484 13.461 22.2287C13.5581 21.9847 14.8211 19.3993 14.3947 17.6737C15.037 17.97 15.7279 18.1153 16.4241 18.1036H22.4314C22.8254 18.1036 23.2194 18.0572 23.6026 17.97C23.5 18.8764 23.6242 19.7943 23.975 20.6251C24.0721 20.875 24.4931 21.9672 24.5903 22.2171C25.238 23.9426 26.4416 25 27.7531 25C28.1148 25 28.471 24.9187 28.8002 24.7676C30.468 24.0239 30.9646 21.9382 30.1118 19.7711C30.0092 19.5155 29.5936 18.4174 29.4965 18.1676C29.151 17.145 28.4818 16.2851 27.6074 15.7332C28.5735 15.402 29.3993 14.4085 29.9337 13.0084C30.0146 12.8108 31.2398 9.62701 31.3154 9.42947C32.017 7.60516 31.9253 5.9261 30.916 4.97908L31.9361 2.33558C32.1088 1.89984 31.9199 1.38857 31.5097 1.20265C31.5097 1.19684 31.5097 1.19684 31.5097 1.19684ZM13.8064 3.67767C14.4433 3.6951 14.9506 4.26447 14.9398 4.95004C14.9398 4.99652 14.9344 5.04299 14.929 5.08366C14.8049 5.74018 14.4865 6.3386 14.0223 6.78015L13.1695 7.69231C12.7215 8.24425 12.09 8.59284 11.41 8.66256C11.1077 8.66837 10.8163 8.54055 10.6112 8.30235C9.9527 7.56449 10.4169 6.39089 11.2211 5.55427L12.0739 4.64211C12.5164 4.10179 13.1371 3.7532 13.8064 3.67767ZM11.2157 1.72554C11.3668 1.72554 11.5179 1.7604 11.6583 1.83012C11.9119 1.92889 12.1224 2.13223 12.2412 2.39368C10.4169 3.02115 9.01896 5.77504 8.81386 6.52452C8.40906 5.60075 9.21326 1.72554 11.2157 1.72554ZM6.27171 10.7716H6.10439C5.05191 10.7716 4.00483 10.2835 4.00483 9.26098C4.00483 8.23844 5.04112 7.77365 6.0936 7.75041H6.28251C7.34039 7.75041 8.40906 8.22101 8.40906 9.26098C8.40906 10.3068 7.33499 10.7716 6.27171 10.7716ZM10.3845 13.4151C10.0121 13.049 9.78538 12.5436 9.7476 12.0033C9.78538 11.2596 10.3359 10.667 11.0268 10.6263C11.5395 10.6612 12.0145 10.911 12.3545 11.3177L12.4409 11.4165C13.0346 12.0614 13.4124 13.0142 12.6891 13.7927C12.4625 14.0658 12.144 14.2168 11.8094 14.2226C11.302 14.1878 10.8325 13.938 10.4924 13.5371C10.4547 13.4964 10.4223 13.4557 10.3845 13.4151ZM12.6082 19.9512C12.5056 20.201 12.0739 21.3165 11.9767 21.578C11.5773 22.6063 10.935 23.2745 10.3035 23.2745C10.1524 23.2745 10.0013 23.2396 9.86094 23.1699C9.58028 23.0537 9.35899 22.8213 9.24565 22.5192C9.05134 21.8278 9.11071 21.0783 9.41296 20.4334C9.51551 20.1778 9.9419 19.0681 10.0337 18.8183C10.4331 17.7725 11.0915 17.0927 11.7176 17.0927C11.8688 17.0927 12.0145 17.1276 12.1548 17.1915C12.4355 17.3077 12.6568 17.5401 12.7647 17.8364C12.9752 18.5394 12.9104 19.2947 12.6082 19.9512ZM16.4241 16.3781C15.404 16.3781 14.222 15.983 14.222 14.8675C14.222 13.7578 15.4094 13.357 16.4241 13.357H22.4314C23.527 13.357 24.6335 13.8218 24.6335 14.8675C24.6335 15.9133 23.527 16.3781 22.4314 16.3781H16.4241ZM28.6383 20.4392C28.9405 21.0841 28.9999 21.8278 28.8002 22.5192C28.6923 22.8213 28.471 23.0595 28.1849 23.1757C28.0446 23.2396 27.8989 23.2745 27.7477 23.2745C27.1162 23.2745 26.4578 22.6063 26.0692 21.578C25.972 21.3165 25.5456 20.2126 25.4485 19.9628C25.1408 19.3121 25.0814 18.5568 25.2758 17.8538C25.3837 17.5517 25.605 17.3193 25.8857 17.2031C26.026 17.1392 26.1717 17.1043 26.3228 17.1043C26.9543 17.1043 27.6182 17.7783 28.0068 18.8299L28.6383 20.4392ZM29.8419 8.75552L28.4656 12.3402C28.0662 13.4267 27.4293 14.1239 26.8896 14.1239C26.7492 14.1239 26.6143 14.0948 26.4902 14.0309C26.1987 13.9205 25.9828 13.6475 25.9342 13.3221C25.8479 12.6482 25.9504 11.9626 26.2257 11.3467L26.5711 10.4462L27.6452 7.75041C28.0446 6.66396 28.6815 5.96096 29.2104 5.96096C29.3507 5.96096 29.4857 5.99582 29.6098 6.05391C29.9013 6.1643 30.1172 6.43737 30.1711 6.76272C30.2413 7.4541 30.128 8.14548 29.8419 8.75552Z" fill="#717171"/>
</svg>
