<svg width="32" height="32" viewBox="0 0 32 32" fill="none" xmlns="http://www.w3.org/2000/svg">
<path d="M12.0003 13.3333C11.6467 13.3333 11.3076 13.4738 11.0575 13.7238C10.8075 13.9739 10.667 14.313 10.667 14.6666V17.3333C10.667 17.6869 10.8075 18.0261 11.0575 18.2761C11.3076 18.5262 11.6467 18.6666 12.0003 18.6666C12.3539 18.6666 12.6931 18.5262 12.9431 18.2761C13.1932 18.0261 13.3337 17.6869 13.3337 17.3333V14.6666C13.3337 14.313 13.1932 13.9739 12.9431 13.7238C12.6931 13.4738 12.3539 13.3333 12.0003 13.3333ZM28.0003 14.6666C28.3539 14.6666 28.6931 14.5262 28.9431 14.2761C29.1932 14.0261 29.3337 13.6869 29.3337 13.3333V7.99996C29.3337 7.64634 29.1932 7.3072 28.9431 7.05715C28.6931 6.8071 28.3539 6.66663 28.0003 6.66663H4.00033C3.6467 6.66663 3.30756 6.8071 3.05752 7.05715C2.80747 7.3072 2.66699 7.64634 2.66699 7.99996V13.3333C2.66699 13.6869 2.80747 14.0261 3.05752 14.2761C3.30756 14.5262 3.6467 14.6666 4.00033 14.6666C4.35395 14.6666 4.69309 14.8071 4.94313 15.0572C5.19318 15.3072 5.33366 15.6463 5.33366 16C5.33366 16.3536 5.19318 16.6927 4.94313 16.9428C4.69309 17.1928 4.35395 17.3333 4.00033 17.3333C3.6467 17.3333 3.30756 17.4738 3.05752 17.7238C2.80747 17.9739 2.66699 18.313 2.66699 18.6666V24C2.66699 24.3536 2.80747 24.6927 3.05752 24.9428C3.30756 25.1928 3.6467 25.3333 4.00033 25.3333H28.0003C28.3539 25.3333 28.6931 25.1928 28.9431 24.9428C29.1932 24.6927 29.3337 24.3536 29.3337 24V18.6666C29.3337 18.313 29.1932 17.9739 28.9431 17.7238C28.6931 17.4738 28.3539 17.3333 28.0003 17.3333C27.6467 17.3333 27.3076 17.1928 27.0575 16.9428C26.8075 16.6927 26.667 16.3536 26.667 16C26.667 15.6463 26.8075 15.3072 27.0575 15.0572C27.3076 14.8071 27.6467 14.6666 28.0003 14.6666ZM26.667 12.24C25.8948 12.5202 25.2276 13.0315 24.7561 13.7042C24.2846 14.3769 24.0317 15.1785 24.0317 16C24.0317 16.8215 24.2846 17.623 24.7561 18.2957C25.2276 18.9685 25.8948 19.4797 26.667 19.76V22.6666H13.3337C13.3337 22.313 13.1932 21.9739 12.9431 21.7238C12.6931 21.4738 12.3539 21.3333 12.0003 21.3333C11.6467 21.3333 11.3076 21.4738 11.0575 21.7238C10.8075 21.9739 10.667 22.313 10.667 22.6666H5.33366V19.76C6.10586 19.4797 6.77305 18.9685 7.24454 18.2957C7.71603 17.623 7.96896 16.8215 7.96896 16C7.96896 15.1785 7.71603 14.3769 7.24454 13.7042C6.77305 13.0315 6.10586 12.5202 5.33366 12.24V9.33329H10.667C10.667 9.68691 10.8075 10.0261 11.0575 10.2761C11.3076 10.5261 11.6467 10.6666 12.0003 10.6666C12.3539 10.6666 12.6931 10.5261 12.9431 10.2761C13.1932 10.0261 13.3337 9.68691 13.3337 9.33329H26.667V12.24Z" fill="#222222"/>
</svg>
