<svg width="33" height="32" viewBox="0 0 33 32" fill="none" xmlns="http://www.w3.org/2000/svg">
<path d="M29.833 6.66671H3.16634C2.81272 6.66671 2.47358 6.80718 2.22353 7.05723C1.97348 7.30728 1.83301 7.64642 1.83301 8.00004V13.3334C1.83533 14.1586 2.09285 14.963 2.57026 15.6361C3.04767 16.3093 3.72161 16.8183 4.49967 17.0934V29.3334C4.49967 29.687 4.64015 30.0261 4.8902 30.2762C5.14025 30.5262 5.47939 30.6667 5.83301 30.6667H27.1663C27.52 30.6667 27.8591 30.5262 28.1091 30.2762C28.3592 30.0261 28.4997 29.687 28.4997 29.3334V17.0934C29.2777 16.8183 29.9517 16.3093 30.4291 15.6361C30.9065 14.963 31.164 14.1586 31.1663 13.3334V8.00004C31.1663 7.64642 31.0259 7.30728 30.7758 7.05723C30.5258 6.80718 30.1866 6.66671 29.833 6.66671ZM20.4997 9.33337H23.1663V13.3334C23.1663 13.687 23.0259 14.0261 22.7758 14.2762C22.5258 14.5262 22.1866 14.6667 21.833 14.6667C21.4794 14.6667 21.1402 14.5262 20.8902 14.2762C20.6402 14.0261 20.4997 13.687 20.4997 13.3334V9.33337ZM15.1663 9.33337H17.833V13.3334C17.833 13.687 17.6925 14.0261 17.4425 14.2762C17.1924 14.5262 16.8533 14.6667 16.4997 14.6667C16.1461 14.6667 15.8069 14.5262 15.5569 14.2762C15.3068 14.0261 15.1663 13.687 15.1663 13.3334V9.33337ZM9.83301 9.33337H12.4997V13.3334C12.4997 13.687 12.3592 14.0261 12.1091 14.2762C11.8591 14.5262 11.52 14.6667 11.1663 14.6667C10.8127 14.6667 10.4736 14.5262 10.2235 14.2762C9.97348 14.0261 9.83301 13.687 9.83301 13.3334V9.33337ZM5.83301 14.6667C5.47939 14.6667 5.14025 14.5262 4.8902 14.2762C4.64015 14.0261 4.49967 13.687 4.49967 13.3334V9.33337H7.16634V13.3334C7.16634 13.687 7.02586 14.0261 6.77582 14.2762C6.52577 14.5262 6.18663 14.6667 5.83301 14.6667ZM19.1663 28H13.833V25.3334C13.833 24.6261 14.114 23.9479 14.6141 23.4478C15.1142 22.9477 15.7924 22.6667 16.4997 22.6667C17.2069 22.6667 17.8852 22.9477 18.3853 23.4478C18.8854 23.9479 19.1663 24.6261 19.1663 25.3334V28ZM25.833 28H21.833V25.3334C21.833 23.9189 21.2711 22.5623 20.2709 21.5621C19.2707 20.5619 17.9142 20 16.4997 20C15.0852 20 13.7286 20.5619 12.7284 21.5621C11.7282 22.5623 11.1663 23.9189 11.1663 25.3334V28H7.16634V17.0934C7.65643 16.9115 8.10853 16.6402 8.49967 16.2934C9.23304 16.9493 10.1824 17.3119 11.1663 17.3119C12.1503 17.3119 13.0996 16.9493 13.833 16.2934C14.5664 16.9493 15.5158 17.3119 16.4997 17.3119C17.4836 17.3119 18.433 16.9493 19.1663 16.2934C19.8997 16.9493 20.8491 17.3119 21.833 17.3119C22.8169 17.3119 23.7663 16.9493 24.4997 16.2934C24.8908 16.6402 25.3429 16.9115 25.833 17.0934V28ZM28.4997 13.3334C28.4997 13.687 28.3592 14.0261 28.1091 14.2762C27.8591 14.5262 27.52 14.6667 27.1663 14.6667C26.8127 14.6667 26.4736 14.5262 26.2235 14.2762C25.9735 14.0261 25.833 13.687 25.833 13.3334V9.33337H28.4997V13.3334ZM6.23301 4.00004H27.1663C27.52 4.00004 27.8591 3.85956 28.1091 3.60952C28.3592 3.35947 28.4997 3.02033 28.4997 2.66671C28.4997 2.31309 28.3592 1.97395 28.1091 1.7239C27.8591 1.47385 27.52 1.33337 27.1663 1.33337H6.23301C5.87939 1.33337 5.54025 1.47385 5.2902 1.7239C5.04015 1.97395 4.89967 2.31309 4.89967 2.66671C4.89967 3.02033 5.04015 3.35947 5.2902 3.60952C5.54025 3.85956 5.87939 4.00004 6.23301 4.00004Z" fill="#717171"/>
</svg>
