<svg width="33" height="32" viewBox="0 0 33 32" fill="none" xmlns="http://www.w3.org/2000/svg">
<path d="M28.718 22.44L25.958 19.6133C25.3643 19.049 24.6154 18.6751 23.8076 18.5396C22.9998 18.4042 22.1699 18.5135 21.4247 18.8533L20.2247 17.6533C21.6387 15.7639 22.2845 13.4089 22.0321 11.0624C21.7796 8.71598 20.6476 6.55228 18.8639 5.00692C17.0802 3.46155 14.7774 2.64926 12.4189 2.73356C10.0604 2.81787 7.82139 3.7925 6.15262 5.46128C4.48385 7.13005 3.50921 9.36904 3.42491 11.7275C3.3406 14.086 4.1529 16.3889 5.69826 18.1726C7.24363 19.9562 9.40732 21.0882 11.7538 21.3407C14.1002 21.5932 16.4552 20.9474 18.3447 19.5333L19.5313 20.72C19.1514 21.4662 19.0153 22.3127 19.1421 23.1404C19.2689 23.9681 19.6522 24.7351 20.238 25.3333L23.0647 28.16C23.8147 28.9091 24.8313 29.3298 25.8913 29.3298C26.9513 29.3298 27.968 28.9091 28.718 28.16C29.099 27.7875 29.4017 27.3426 29.6084 26.8514C29.815 26.3603 29.9215 25.8328 29.9215 25.3C29.9215 24.7671 29.815 24.2397 29.6084 23.7485C29.4017 23.2574 29.099 22.8125 28.718 22.44ZM17.4113 16.7867C16.4783 17.7173 15.2904 18.3506 13.9976 18.6064C12.7049 18.8623 11.3653 18.7293 10.1481 18.2242C8.93094 17.7192 7.89074 16.8647 7.15894 15.7687C6.42715 14.6727 6.03658 13.3845 6.03658 12.0667C6.03658 10.7488 6.42715 9.46056 7.15894 8.3646C7.89074 7.26864 8.93094 6.41415 10.1481 5.90907C11.3653 5.40399 12.7049 5.27098 13.9976 5.52685C15.2904 5.78272 16.4783 6.41599 17.4113 7.34665C18.0322 7.96593 18.5247 8.7016 18.8608 9.51153C19.1969 10.3215 19.3699 11.1898 19.3699 12.0667C19.3699 12.9435 19.1969 13.8118 18.8608 14.6218C18.5247 15.4317 18.0322 16.1674 17.4113 16.7867ZM26.838 26.2133C26.714 26.3383 26.5666 26.4375 26.4041 26.5052C26.2416 26.5729 26.0673 26.6077 25.8913 26.6077C25.7153 26.6077 25.541 26.5729 25.3786 26.5052C25.2161 26.4375 25.0686 26.3383 24.9447 26.2133L22.118 23.3867C21.993 23.2627 21.8938 23.1152 21.8261 22.9528C21.7584 22.7903 21.7236 22.616 21.7236 22.44C21.7236 22.264 21.7584 22.0897 21.8261 21.9272C21.8938 21.7647 21.993 21.6173 22.118 21.4933C22.2419 21.3683 22.3894 21.2692 22.5519 21.2015C22.7144 21.1338 22.8886 21.0989 23.0647 21.0989C23.2407 21.0989 23.415 21.1338 23.5774 21.2015C23.7399 21.2692 23.8874 21.3683 24.0113 21.4933L26.838 24.32C26.963 24.4439 27.0622 24.5914 27.1299 24.7539C27.1975 24.9164 27.2324 25.0906 27.2324 25.2667C27.2324 25.4427 27.1975 25.6169 27.1299 25.7794C27.0622 25.9419 26.963 26.0894 26.838 26.2133Z" fill="#717171"/>
</svg>
