<svg width="33" height="32" viewBox="0 0 33 32" fill="none" xmlns="http://www.w3.org/2000/svg">
<path d="M27.5418 10.6667L19.5418 3.65334C18.8084 2.9974 17.859 2.63477 16.8751 2.63477C15.8912 2.63477 14.9418 2.9974 14.2085 3.65334L6.20846 10.6667C5.78495 11.0454 5.44699 11.5101 5.21709 12.0297C4.98718 12.5493 4.87061 13.1118 4.87513 13.68V25.3333C4.87513 26.3942 5.29655 27.4116 6.0467 28.1618C6.79684 28.9119 7.81426 29.3333 8.87513 29.3333H24.8751C25.936 29.3333 26.9534 28.9119 27.7036 28.1618C28.4537 27.4116 28.8751 26.3942 28.8751 25.3333V13.6667C28.8777 13.1008 28.7603 12.5407 28.5304 12.0236C28.3006 11.5064 27.9636 11.0439 27.5418 10.6667ZM19.5418 26.6667H14.2085V20C14.2085 19.6464 14.3489 19.3072 14.599 19.0572C14.849 18.8071 15.1882 18.6667 15.5418 18.6667H18.2085C18.5621 18.6667 18.9012 18.8071 19.1513 19.0572C19.4013 19.3072 19.5418 19.6464 19.5418 20V26.6667ZM26.2085 25.3333C26.2085 25.687 26.068 26.0261 25.8179 26.2761C25.5679 26.5262 25.2287 26.6667 24.8751 26.6667H22.2085V20C22.2085 18.9391 21.787 17.9217 21.0369 17.1716C20.2867 16.4214 19.2693 16 18.2085 16H15.5418C14.4809 16 13.4635 16.4214 12.7134 17.1716C11.9632 17.9217 11.5418 18.9391 11.5418 20V26.6667H8.87513C8.5215 26.6667 8.18237 26.5262 7.93232 26.2761C7.68227 26.0261 7.54179 25.687 7.54179 25.3333V13.6667C7.54203 13.4774 7.58258 13.2903 7.66075 13.1178C7.73891 12.9454 7.8529 12.7916 7.99513 12.6667L15.9951 5.66667C16.2384 5.45292 16.5512 5.33503 16.8751 5.33503C17.199 5.33503 17.5118 5.45292 17.7551 5.66667L25.7551 12.6667C25.8973 12.7916 26.0113 12.9454 26.0895 13.1178C26.1677 13.2903 26.2082 13.4774 26.2085 13.6667V25.3333Z" fill="#717171"/>
</svg>
