<svg width="33" height="32" viewBox="0 0 33 32" fill="none" xmlns="http://www.w3.org/2000/svg">
<path d="M16.1254 2.66669C13.5394 2.6716 11.0106 3.42844 8.84703 4.84501C6.68349 6.26158 4.97859 8.27674 3.93998 10.645C2.90137 13.0134 2.57389 15.6326 2.99743 18.1837C3.42096 20.7348 4.57723 23.1077 6.32539 25.0134C7.57395 26.3668 9.08931 27.4469 10.776 28.1856C12.4626 28.9244 14.284 29.3058 16.1254 29.3058C17.9667 29.3058 19.7881 28.9244 21.4748 28.1856C23.1615 27.4469 24.6768 26.3668 25.9254 25.0134C27.6736 23.1077 28.8298 20.7348 29.2534 18.1837C29.6769 15.6326 29.3494 13.0134 28.3108 10.645C27.2722 8.27674 25.5673 6.26158 23.4037 4.84501C21.2402 3.42844 18.7114 2.6716 16.1254 2.66669ZM16.1254 26.6667C13.3633 26.6625 10.7106 25.5871 8.72539 23.6667C9.32811 22.1994 10.3534 20.9444 11.6711 20.0612C12.9887 19.178 14.5391 18.7064 16.1254 18.7064C17.7116 18.7064 19.2621 19.178 20.5797 20.0612C21.8973 20.9444 22.9227 22.1994 23.5254 23.6667C21.5402 25.5871 18.8874 26.6625 16.1254 26.6667ZM13.4587 13.3334C13.4587 12.8059 13.6151 12.2904 13.9081 11.8518C14.2012 11.4133 14.6176 11.0715 15.1049 10.8697C15.5922 10.6678 16.1283 10.615 16.6456 10.7179C17.1629 10.8208 17.6381 11.0748 18.011 11.4477C18.3839 11.8207 18.6379 12.2958 18.7408 12.8131C18.8437 13.3304 18.7909 13.8666 18.5891 14.3538C18.3872 14.8411 18.0454 15.2576 17.6069 15.5506C17.1684 15.8436 16.6528 16 16.1254 16C15.4181 16 14.7399 15.7191 14.2398 15.219C13.7397 14.7189 13.4587 14.0406 13.4587 13.3334ZM25.3387 21.3334C24.1474 19.2957 22.3139 17.7107 20.1254 16.8267C20.8043 16.0569 21.2466 15.1076 21.3994 14.0926C21.5521 13.0776 21.4087 12.0402 20.9864 11.1047C20.5641 10.1692 19.8808 9.37543 19.0186 8.81864C18.1564 8.26185 17.1518 7.96569 16.1254 7.96569C15.099 7.96569 14.0944 8.26185 13.2322 8.81864C12.3699 9.37543 11.6867 10.1692 11.2644 11.1047C10.8421 12.0402 10.6987 13.0776 10.8514 14.0926C11.0042 15.1076 11.4465 16.0569 12.1254 16.8267C9.93685 17.7107 8.10335 19.2957 6.91206 21.3334C5.96265 19.7162 5.46102 17.8753 5.45872 16C5.45872 13.171 6.58253 10.4579 8.58292 8.45755C10.5833 6.45716 13.2964 5.33335 16.1254 5.33335C18.9544 5.33335 21.6675 6.45716 23.6679 8.45755C25.6682 10.4579 26.7921 13.171 26.7921 16C26.7898 17.8753 26.2881 19.7162 25.3387 21.3334Z" fill="#717171"/>
</svg>
