<svg width="33" height="32" viewBox="0 0 33 32" fill="none" xmlns="http://www.w3.org/2000/svg">
<path d="M27.2547 6.14664C25.8391 4.73065 23.9623 3.86974 21.9657 3.72048C19.969 3.57122 17.9851 4.14352 16.3747 5.33331C14.6783 4.07149 12.5667 3.49932 10.4653 3.73203C8.36385 3.96473 6.42864 4.98501 5.04935 6.58742C3.67006 8.18983 2.94915 10.2553 3.03178 12.368C3.11442 14.4807 3.99447 16.4835 5.49472 17.9733L15.4281 27.9066C15.552 28.0316 15.6995 28.1308 15.8619 28.1985C16.0244 28.2662 16.1987 28.301 16.3747 28.301C16.5507 28.301 16.725 28.2662 16.8875 28.1985C17.05 28.1308 17.1974 28.0316 17.3214 27.9066L27.2547 17.9733C28.0316 17.1969 28.6479 16.2751 29.0683 15.2605C29.4888 14.2458 29.7052 13.1583 29.7052 12.06C29.7052 10.9617 29.4888 9.87412 29.0683 8.85949C28.6479 7.84485 28.0316 6.92301 27.2547 6.14664ZM25.3747 16.0933L16.3747 25.08L7.37472 16.0933C6.58162 15.2969 6.04135 14.284 5.82169 13.1818C5.60203 12.0795 5.71276 10.9369 6.13999 9.8973C6.56721 8.85771 7.29191 7.96743 8.22318 7.33814C9.15444 6.70885 10.2508 6.36856 11.3747 6.35998C12.8762 6.36365 14.3148 6.96309 15.3747 8.02664C15.4987 8.15161 15.6461 8.25081 15.8086 8.3185C15.9711 8.38619 16.1454 8.42104 16.3214 8.42104C16.4974 8.42104 16.6717 8.38619 16.8342 8.3185C16.9966 8.25081 17.1441 8.15161 17.2681 8.02664C18.3591 7.08115 19.7687 6.5855 21.2114 6.64001C22.6542 6.69451 24.0223 7.29511 25.039 8.32023C26.0556 9.34535 26.6448 10.7184 26.6874 12.1616C26.7299 13.6047 26.2226 15.0101 25.268 16.0933H25.3747Z" fill="#717171"/>
</svg>
